<svg xmlns="http://www.w3.org/2000/svg" viewBox="0 0 109 108.53"><defs><style>.cls-1{fill:#fff;}</style></defs><title>Asset 1</title><g id="Layer_2" data-name="Layer 2"><g id="Layer_1-2" data-name="Layer 1"><path class="cls-1" d="M62,108.53H48a6.22,6.22,0,0,0-1.69-.91c-11.32-2-15.12-7.1-12.17-18.22,1.53-5.78.16-10-3-14.58C24.71,65.33,20.68,55,22,43.22c.28-2.49.63-5,1-7.71-13.17,3-18.05,1-23-9v-1a29.14,29.14,0,0,1,23.4-2.22c4.27,1.3,7.14,1,9.9-2.58-8.5-3.46-12-10-11.45-19.12,4.15,8,10.92,11.18,19.39,10.77a7.81,7.81,0,0,0,5.26-3c4.78-6.94,11.8-7.2,16.26,0a6,6,0,0,0,5.94,3.23c8.53-.09,15-3.43,19.15-12.58.64,10.68-3.54,17-11.74,20.87,4.6,3.75,4.52,3.38,9.95,2.23C93.88,21.45,101.75,21,109,25.53v3c-5.4,9-13.53,9.7-21.26,7.31-.6,8-.3,15.95-2,23.4-1.33,5.72-5.07,10.93-8,16.21-2.45,4.38-4.2,8.23-2.24,13.76,3.29,9.23-1.36,16.15-11,18.32A16.57,16.57,0,0,0,62,108.53Zm-19.64-6c8.36,2.82,18,2.69,24.06-.08l-.28-5,5.93,1.81c-1.44-3.86-2.4-6.91-3.71-9.79s-3.23-5.73-4.53-8.72c-4.51-10.36-1.11-20.25,8.4-26a8.52,8.52,0,0,0,3.56-5.28c1.75-10.93-1-14.91-11.7-17.94a35.83,35.83,0,0,0-6.2-1.6,31,31,0,0,0-21.12,5.47C32,38.71,34.6,44.29,34,48.88c-.58,4.26,2.31,6,5.37,7.29C45,58.56,46.53,63,47.1,68.69c.79,7.74-2,14.17-5.77,20.53-1.69,2.83-2.67,6.08-4.27,9.84l7-1.43Z"/></g></g></svg>