<svg xmlns="http://www.w3.org/2000/svg" viewBox="0 0 82.88 107.73"><defs><style>.cls-1{fill:#fff;}</style></defs><title>Asset 1</title><g id="Layer_2" data-name="Layer 2"><g id="Layer_1-2" data-name="Layer 1"><path class="cls-1" d="M37.37,29.28,32.1,26.64C32.47,37.77,34.71,41,42.52,42.27c3.05-6.33-1.6-9.56-5.33-13.18l5.53,1.65c1.3-8.33-.86-12.5-7.8-15.4C33.74,21.74,34,23.45,37.37,29.28Z"/><path class="cls-1" d="M43.66,0c-3.86,4.88-5.49,9.72-4.17,13.54a7.62,7.62,0,0,0,3.27,4c.6.31,2.71-1.46,3.62-2.67C49.79,10.33,49.07,6.61,43.66,0Z"/><path class="cls-1" d="M44.91,39.75c8.32-1.8,10.45-4.59,11.27-14.4C47,27,43.58,31.18,44.91,39.75Z"/><path class="cls-1" d="M56.47,38.4c-10.68,2.85-13,6-11,14.48C53.2,51.38,54.68,49.48,56.47,38.4Z"/><path class="cls-1" d="M32.34,40.32C32.42,49.4,36,56.5,43.1,55.82,44.19,47.92,42.7,45.73,32.34,40.32Z"/><path class="cls-1" d="M45.33,26.87C54,25.28,56.59,20.3,53.6,11.26,45.88,15.65,44.16,18.8,45.33,26.87Z"/><path class="cls-1" d="M42.92,100l.85,0V59.44l-.85,0Z"/><path class="cls-1" d="M14.36,49.84,10.6,47.95c.26,8,1.87,10.28,7.46,11.19,2.18-4.53-1.14-6.84-3.81-9.43l4,1.18c.93-6-.61-8.94-5.58-11C11.77,44.44,12,45.67,14.36,49.84Z"/><path class="cls-1" d="M18.86,28.89c-2.76,3.49-3.93,7-3,9.69a5.45,5.45,0,0,0,2.34,2.87c.43.22,1.94-1,2.59-1.91C23.25,36.28,22.74,33.62,18.86,28.89Z"/><path class="cls-1" d="M19.76,57.33C25.71,56,27.23,54,27.82,47,21.23,48.18,18.81,51.19,19.76,57.33Z"/><path class="cls-1" d="M28,56.36c-7.64,2-9.31,4.31-7.85,10.36C25.69,65.65,26.75,64.29,28,56.36Z"/><path class="cls-1" d="M10.77,57.73c.06,6.5,2.61,11.58,7.69,11.09C19.24,63.17,18.18,61.61,10.77,57.73Z"/><path class="cls-1" d="M20.06,48.11C26.29,47,28.12,43.41,26,36.94,20.45,40.09,19.22,42.34,20.06,48.11Z"/><path class="cls-1" d="M18.34,100.42h.61v-29h-.61Z"/><path class="cls-1" d="M63.61,49.84l-3.77-1.89c.26,8,1.87,10.28,7.46,11.19,2.18-4.53-1.14-6.84-3.81-9.43l4,1.18c.93-6-.61-8.94-5.58-11C61,44.44,61.22,45.67,63.61,49.84Z"/><path class="cls-1" d="M68.1,28.89c-2.76,3.49-3.93,7-3,9.69a5.45,5.45,0,0,0,2.34,2.87c.43.22,1.94-1,2.59-1.91C72.49,36.28,72,33.62,68.1,28.89Z"/><path class="cls-1" d="M69,57.33C75,56,76.47,54,77.06,47,70.47,48.18,68.05,51.19,69,57.33Z"/><path class="cls-1" d="M77.27,56.36c-7.64,2-9.31,4.31-7.85,10.36C74.93,65.65,76,64.29,77.27,56.36Z"/><path class="cls-1" d="M60,57.73c.06,6.5,2.61,11.58,7.69,11.09C68.48,63.17,67.42,61.61,60,57.73Z"/><path class="cls-1" d="M69.3,48.11c6.23-1.13,8.06-4.7,5.92-11.17C69.69,40.09,68.47,42.34,69.3,48.11Z"/><path class="cls-1" d="M67.58,100.42h.61v-29h-.61Z"/><rect class="cls-1" y="92.81" width="82.88" height="14.92" rx="2.18" ry="2.18"/></g></g></svg>